<svg
  xmlns="http://www.w3.org/2000/svg"
  xmlns:xlink="http://www.w3.org/1999/xlink"
  width="186.877"
  height="88.935"
  viewBox="0 0 186.877 88.935"
>
  <defs>
    <style>
      .a {
        fill: url(#a);
      }

      .b {
        fill: url(#b);
      }

      .c {
        fill: none;
      }

      .d {
        clip-path: url(#c);
      }

      .e {
        opacity: 0.5;
      }

      .f {
        fill: #fff;
      }

      .g {
        clip-path: url(#g);
      }

      .h {
        fill: #00a3e2;
      }
    </style>
    <radialGradient
      id="a"
      cx="0.613"
      cy="0.951"
      r="0.354"
      gradientTransform="translate(0 -0.045) scale(1 1.048)"
      gradientUnits="objectBoundingBox"
    >
      <stop
        offset="0"
        stop-color="#1eb1e7"
      />
      <stop
        offset="0.565"
        stop-color="#043547"
      />
      <stop
        offset="1"
        stop-color="#001016"
      />
    </radialGradient>
    <linearGradient
      id="b"
      x1="0.57"
      y1="1.114"
      x2="-0.147"
      y2="-2.082"
      gradientUnits="objectBoundingBox"
    >
      <stop
        offset="0"
        stop-color="#16161640"
      />
      <stop
        offset="1"
        stop-color="#16161640"
      />
    </linearGradient>
    <clipPath id="c">
      <rect
        class="a"
        width="186.877"
        height="86.601"
      />
    </clipPath>
    <clipPath id="g">
      <path
        class="c"
        d="M103.17,0,0,20.841,37.543,60.92,140.716,40.078,103.175,0Z"
        transform="translate(0 0)"
      />
    </clipPath>
  </defs>
  <g
    class="d"
    transform="translate(0 2.334)"
  >
    <path
      class="a"
      d="M186.877,43.3c0,23.913-41.834,43.3-93.438,43.3S0,67.215,0,43.3,41.834,0,93.439,0s93.438,19.386,93.438,43.3"
      transform="translate(0 0)"
    />
  </g>
  <g class="d">
    <path
      class="b"
      d="M186.877,43.3c0,23.913-41.834,43.3-93.438,43.3S0,67.215,0,43.3,41.834,0,93.439,0s93.438,19.386,93.438,43.3"
      transform="translate(0 0)"
    />
  </g>
  <g
    class="e"
    transform="translate(18.106 6.611)"
  >
    <path
      class="f"
      d="M106.265,21.6l21.168,22.6,17.133-3.461L123.4,18.137Z"
      transform="translate(-3.85 -0.657)"
    />
    <g transform="translate(0 0)">
      <g class="g">
        <path
          class="h"
          d="M112.155,5.953l-.062.013L100.731,12.2c-1.247.68-1.5,1.7-.647,2.613l3.339,3.566,12.01-6.584c.881-.489,1.059-1.216.453-1.863l-3.731-3.982"
          transform="translate(-3.608 -0.216)"
        />
        <path
          class="f"
          d="M38.538,13.606a59.929,59.929,0,0,0-7.263,1.932c-13.4,4.513-19.452,13.222-15.013,21.618C23.549,50.94,52.585,58.431,76.078,53.686a58.657,58.657,0,0,0,5.864-1.521L68.977,46.173C54.2,49.139,35.934,44.363,31.562,35.632c-2.557-5.1,1.124-10.4,9.163-13.191a36.859,36.859,0,0,1,4.848-1.314c13.123-2.651,29.014.8,35.492,7.719a11.209,11.209,0,0,1,1.7,2.382l16.476,7.522c1.29-4.243-.067-8.709-3.906-12.787C84.963,14.9,59.539,9.366,38.538,13.606"
          transform="translate(-0.537 -0.441)"
        />
        <path
          class="h"
          d="M85.838,37.372,68.085,40.958,91.638,51.845l17.815-3.6Z"
          transform="translate(-2.467 -1.354)"
        />
      </g>
    </g>
  </g>
</svg>
